<svg xmlns="http://www.w3.org/2000/svg" viewBox="0 0 62 62">
    <path d="M57,62H5a5,5,0,0,1-5-5V5A5,5,0,0,1,5,0H57a5,5,0,0,1,5,5V57A5,5,0,0,1,57,62ZM5,2A3,3,0,0,0,2,5V57a3,3,0,0,0,3,3H57a3,3,0,0,0,3-3V5a3,3,0,0,0-3-3ZM51,52H43.86a1,1,0,0,1-1-1V37.22a20.44,20.44,0,0,0-.39-5.34,2.92,2.92,0,0,0-1.08-1.5,3,3,0,0,0-1.82-.53,4.44,4.44,0,0,0-2.65.83,4.18,4.18,0,0,0-1.58,2.18,22.39,22.39,0,0,0-.48,5.91V51a1,1,0,0,1-1,1H25.29a1,1,0,0,1-1-1V23.41a1,1,0,0,1,1-1h7.14a1,1,0,0,1,1,1v1.51a11.85,11.85,0,0,1,8.19-3.13,12.21,12.21,0,0,1,4.86.95,8.54,8.54,0,0,1,3.46,2.53,9.08,9.08,0,0,1,1.63,3.45A23.41,23.41,0,0,1,52,33.86V51A1,1,0,0,1,51,52Zm-6.14-2H50V33.86a21.91,21.91,0,0,0-.38-4.68,7.09,7.09,0,0,0-1.26-2.69,6.57,6.57,0,0,0-2.67-1.91,10.26,10.26,0,0,0-4.07-.79,10.15,10.15,0,0,0-8.4,4.29,1,1,0,0,1-1.79-.61V24.41H26.29V50h6.57V38.77a25,25,0,0,1,.57-6.51,6.22,6.22,0,0,1,2.33-3.21,6.42,6.42,0,0,1,3.81-1.2,4.86,4.86,0,0,1,4.79,3.38c.21.63.5,1.92.5,6ZM18.14,52H11a1,1,0,0,1-1-1V23.41a1,1,0,0,1,1-1h7.14a1,1,0,0,1,1,1V51A1,1,0,0,1,18.14,52ZM12,50h5.14V24.41H12Zm2.57-31.1a4.45,4.45,0,1,1,4.57-4.45A4.52,4.52,0,0,1,14.57,18.9Zm0-6.9a2.45,2.45,0,1,0,2.57,2.45A2.51,2.51,0,0,0,14.57,12Z"/>
</svg>